<svg width="32" height="32" viewBox="0 0 32 32" fill="none" xmlns="http://www.w3.org/2000/svg">
<rect width="32" height="32" fill="#0A3E86"/>
<path d="M7.55046 20.4849C7.34426 21.6075 7.92296 21.9686 8.92739 21.9686C9.63913 21.9686 10.4373 21.7 10.5992 20.9934C10.7921 20.1525 9.53048 19.9918 8.30877 19.6022C7.10036 19.2147 5.88086 18.6006 6.27997 16.8484C6.75668 14.7637 8.93847 13.947 10.6413 13.947C12.4462 13.947 14.0537 14.8694 13.5748 17.0223H11.2112C11.4484 16.1527 10.7367 15.871 10.0116 15.871C9.50166 15.871 8.82317 16.0581 8.68127 16.6877C8.51276 17.4229 9.79212 17.5572 11.0249 17.9446C12.2466 18.332 13.4218 18.9726 13.0293 20.6962C12.4772 23.1132 10.342 23.8903 8.34646 23.8903C6.35092 23.8903 4.63698 22.9283 5.18242 20.4827H7.54825L7.55046 20.4849Z" fill="white"/>
<path d="M26.2753 14.1474L24.0957 23.69H21.7299L23.9095 14.1474H26.2753Z" fill="white"/>
<path d="M15.2954 14.1474H19.5392C21.109 14.121 22.7277 14.548 22.2731 16.5402C22.078 17.3943 21.4372 18.0921 20.639 18.4641C21.5392 18.7591 21.9339 19.6418 21.6878 20.7226C21.1689 22.9966 19.4217 23.69 17.4772 23.69H13.118L15.2954 14.1474ZM16.8031 17.9028H18.6324C19.0403 17.9028 19.6501 17.6738 19.8053 16.9936C19.9672 16.298 19.5459 16.0713 19.0514 16.0713H17.22L16.8031 17.9028ZM15.9362 21.6978H17.8319C18.5814 21.6978 19.1667 21.416 19.3463 20.628C19.5392 19.7849 19.0426 19.5053 18.3308 19.5053H16.4373L15.9362 21.6978Z" fill="white"/>
<path d="M29.579 10.3149C28.2708 6.8699 20.792 6.47587 12.8763 9.43661C7.23118 11.5476 2.88756 14.7946 1.33325 17.7355C3.48178 15.5078 6.9518 13.3175 11.138 11.7524C19.0559 8.79163 26.5347 9.18566 27.8429 12.6329C28.2198 13.6213 28.0447 14.7527 27.4194 15.937C29.3329 13.9537 30.1976 11.9395 29.5812 10.3171L29.579 10.3149Z" fill="#FC121B"/>
</svg>
